<svg width="56" height="15" viewBox="0 0 56 15" fill="none" xmlns="http://www.w3.org/2000/svg">
<path d="M5.34464 7.99012C5.76347 7.99012 6.103 7.69592 6.103 7.33298C6.103 6.97004 5.76347 6.67584 5.34464 6.67584C4.92581 6.67584 4.58627 6.97004 4.58627 7.33298C4.58627 7.69592 4.92581 7.99012 5.34464 7.99012Z" fill="#34CE71"/>
<path d="M10.5579 7.33298C10.5579 7.69592 10.2183 7.99012 9.79949 7.99012C9.38065 7.99012 9.04111 7.69592 9.04111 7.33298C9.04111 6.97004 9.38065 6.67584 9.79949 6.67584C10.2183 6.67584 10.5579 6.97004 10.5579 7.33298Z" fill="#34CE71"/>
<path fill-rule="evenodd" clip-rule="evenodd" d="M5.21232 1.03321H5.65231V0H5.13885C3.05839 0 1.59021 0.732743 1.59021 2.46109C1.59021 2.9658 1.68076 3.45337 1.77424 3.95669C1.7782 3.97802 1.78217 3.99938 1.78614 4.02078C1.80289 4.10939 1.81879 4.19763 1.83426 4.28624C1.83495 4.28943 1.83551 4.29272 1.83609 4.29606C1.83659 4.29897 1.8371 4.30192 1.8377 4.30486C1.91589 4.73639 1.98163 5.16755 1.98163 5.59907C1.98163 5.60782 1.98153 5.61657 1.98142 5.62532C1.98132 5.63407 1.98121 5.64282 1.98121 5.65157V5.66832C1.96273 6.30649 1.67571 6.98936 0 6.98936V7.9477C1.73672 7.9477 1.98163 8.7553 1.98163 9.33762C1.98163 9.82833 1.89098 10.3187 1.79602 10.8087C1.7943 10.8171 1.79269 10.8256 1.79108 10.834C1.78947 10.8425 1.78786 10.8509 1.78614 10.8593C1.69892 11.3128 1.61083 11.7816 1.59365 12.2384C1.5915 12.2924 1.59021 12.3461 1.59021 12.4C1.59021 14.2347 3.009 14.9281 4.93838 14.9717L4.93735 15H6.36342L6.48416 11.7987L8.54096 11.8572L8.65958 15H10.0852L10.0841 14.9702C11.9842 14.9139 13.3748 14.2162 13.3748 12.3996C13.3748 11.8926 13.2772 11.3665 13.1792 10.8593C13.0808 10.3522 12.9833 9.8451 12.9833 9.33727C12.9833 8.7549 13.2278 7.94736 14.9658 7.94736V6.98896C13.2274 6.98936 12.9829 6.25624 12.9829 5.59907C12.9829 5.57673 12.9829 5.55365 12.9833 5.53131V5.53124C12.9833 5.52568 12.9833 5.51975 12.9838 5.51456V5.51454V5.51455C12.9919 5.06962 13.0671 4.62469 13.1488 4.17975C13.149 4.17875 13.1492 4.17774 13.1494 4.17671C13.1496 4.17575 13.1498 4.17478 13.1499 4.17381C13.1502 4.17227 13.1505 4.17072 13.1507 4.16914V4.16913C13.151 4.16773 13.1512 4.16632 13.1514 4.16488L13.1517 4.16334L13.152 4.16209L13.1522 4.16077L13.1522 4.16075C13.153 4.15765 13.1535 4.15469 13.154 4.15159C13.1544 4.14988 13.1548 4.14811 13.1552 4.14625C13.1625 4.10454 13.1707 4.06247 13.1788 4.02078L13.1867 3.97869C13.2656 3.55601 13.3425 3.14455 13.3661 2.72507C13.3718 2.63757 13.3743 2.5497 13.3743 2.46109C13.3743 0.788591 11.999 0.0484027 10.025 0.00186164C10.009 0.00167959 9.99288 0.00147528 9.9767 0.00127049C9.92677 0.000637592 9.87645 0 9.82612 0H9.3122V1.03321H9.75266C11.1968 1.03321 11.6861 1.63452 11.6861 2.64949C11.6861 2.74629 11.6823 2.84384 11.6754 2.94251C11.6664 3.0799 11.6501 3.21915 11.6298 3.3584C11.6298 3.35846 11.6298 3.35852 11.6298 3.35859L8.99037 1.96741L8.99043 1.96738L7.61251 1.24097H7.61245L6.23539 1.96701H6.23537L3.35446 3.48558L3.35443 3.48536C3.30802 3.2024 3.27838 2.9224 3.27838 2.64949C3.27881 1.63452 3.7682 1.03321 5.21232 1.03321ZM11.3935 4.67886L7.61324 2.69122L3.58737 4.80792C3.58759 4.81042 3.58788 4.81278 3.58817 4.81513C3.5885 4.81774 3.58882 4.82035 3.58903 4.82314C3.60923 5.0134 3.62126 5.20776 3.62126 5.41105C3.64575 6.61367 2.96043 7.21499 1.85961 7.44022V7.47823C2.96085 7.68486 3.64618 8.32339 3.62126 9.52563C3.62126 10.0331 3.54735 10.5026 3.44982 10.9539C3.37291 11.3244 3.31017 11.6721 3.28784 12.0244C3.28225 12.1178 3.27881 12.2116 3.27881 12.3062C3.27881 13.2957 3.77701 13.8697 4.97604 13.9346L5.10019 10.5257L9.9271 10.6579L10.0464 13.931C11.2046 13.8512 11.6866 13.2799 11.6866 12.3062C11.6866 11.8553 11.6127 11.4227 11.5151 10.9535C11.4172 10.5022 11.3437 10.0328 11.3437 9.52529C11.3196 8.32339 12.005 7.68446 13.1058 7.47783V7.43987C12.005 7.21459 11.3196 6.61327 11.3437 5.41068C11.3437 5.16121 11.3613 4.92516 11.3914 4.69394L11.3915 4.69298C11.3919 4.68844 11.3923 4.68334 11.3935 4.67886Z" fill="green"/>
<path d="M37.7039 5.40054H37.6966C37.2764 5.40054 37.0134 5.15332 37.013 4.84763C37.013 4.52222 37.2833 4.28802 37.7039 4.28802C38.1246 4.28802 38.3871 4.52222 38.3948 4.84763C38.3948 5.15332 38.1246 5.40054 37.7039 5.40054Z" fill="#34CE71"/>
<path fill-rule="evenodd" clip-rule="evenodd" d="M28.0634 4.30786V7.92539C28.0634 8.32233 28.0785 8.71921 28.0935 8.93404H26.8844L26.832 8.50477H26.8169C26.5768 8.86254 26.1261 9.00588 25.7058 9.00588C24.8499 9.00588 24.1367 8.36178 24.1367 7.35984C24.1289 6.2797 24.9174 5.66165 25.7883 5.66165C26.194 5.66165 26.5243 5.76589 26.6894 5.97401H26.7044V4.30786H28.0634ZM26.7044 7.11859V7.11854C26.7044 7.07311 26.7044 7.0143 26.6967 6.96888C26.6442 6.74101 26.4488 6.55896 26.1635 6.55896C25.7131 6.55896 25.5104 6.91042 25.5104 7.32671C25.5104 7.82116 25.7883 8.0751 26.1562 8.0751C26.4341 8.0751 26.6365 7.90604 26.6816 7.6912C26.704 7.62608 26.704 7.55458 26.704 7.47636V7.11859H26.7044Z" fill="green"/>
<path fill-rule="evenodd" clip-rule="evenodd" d="M19.6836 7.35907C19.6836 8.40012 20.5395 9.00511 21.6433 9.00511H21.6511C22.6797 9.00511 23.6408 8.46524 23.6408 7.30061C23.6408 6.33739 22.8748 5.66089 21.7185 5.66089C20.457 5.66089 19.6836 6.33739 19.6836 7.35907ZM22.2444 7.333C22.2444 7.84721 22.049 8.17896 21.6811 8.17896H21.6738C21.2605 8.17896 21.0805 7.81442 21.0805 7.333C21.0805 6.91005 21.2309 6.4871 21.6811 6.4871C22.0795 6.4871 22.2444 6.8907 22.2444 7.333Z" fill="green"/>
<path d="M18.3998 8.99875C18.8127 8.99875 19.1955 8.95333 19.4133 8.86213L19.2711 8.00354C19.0984 8.062 18.9106 8.08807 18.6778 8.08807C18.1969 8.08807 17.7841 7.84085 17.7841 7.32033C17.7763 6.85827 18.1368 6.5589 18.6399 6.5589C18.9179 6.5589 19.098 6.59163 19.2256 6.63706L19.4133 5.77812C19.1504 5.69994 18.8277 5.66754 18.5647 5.66754C17.1232 5.66754 16.3949 6.44795 16.3949 7.35903C16.3949 8.374 17.1683 8.99875 18.3998 8.99875Z" fill="green"/>
<path fill-rule="evenodd" clip-rule="evenodd" d="M30.0005 7.74339C30.0459 7.9971 30.4737 8.13992 30.9538 8.13992C31.2993 8.13992 31.6297 8.10753 31.9601 8.01628L32.1328 8.79706C31.6899 8.94672 31.2095 8.99886 30.7515 8.99886C29.4526 8.99886 28.7166 8.38083 28.7166 7.36586C28.7166 6.62419 29.2721 5.66132 30.6312 5.66132C31.8252 5.66132 32.3357 6.42273 32.3357 7.30102C32.3357 7.48984 32.3056 7.66557 32.2832 7.74339H30.0005ZM30.5637 6.4287C30.9917 6.4287 31.0892 6.76712 31.0892 6.94922H29.9854C30.0081 6.74743 30.1658 6.4287 30.5637 6.4287Z" fill="green"/>
<path d="M34.0023 5.73273L34.4002 7.0925C34.4754 7.34638 34.5279 7.59361 34.5729 7.84721H34.5953C34.6404 7.58695 34.6855 7.35907 34.7603 7.0925L35.1281 5.73273H36.5473L35.2033 8.93402H33.8443L32.5303 5.73273H34.0023Z" fill="green"/>
<path d="M40.5724 4.30786H39.2134V8.93404H40.5724V4.30786Z" fill="green"/>
<path d="M41.406 4.30786H42.765V8.93404H41.406V4.30786Z" fill="green"/>
<path fill-rule="evenodd" clip-rule="evenodd" d="M46.9474 8.93367C46.9096 8.77092 46.8873 8.47161 46.8873 8.15289H46.8877V7.07274C46.8877 6.27261 46.4447 5.66089 45.1759 5.66089C44.4098 5.66089 43.877 5.84294 43.6441 5.95354L43.877 6.6889C44.1249 6.57198 44.5301 6.45471 44.9206 6.45471C45.4161 6.45471 45.5286 6.59805 45.5286 6.72801V6.75402C44.2748 6.75402 43.3811 7.13792 43.3811 7.99686C43.3811 8.53042 43.8465 9.00551 44.6048 9.00551C45.0032 9.00551 45.371 8.90794 45.6262 8.65406H45.6563L45.7237 8.93367H46.9474ZM44.7093 7.88591C44.7093 7.59969 45.0172 7.46974 45.5725 7.46968V7.72994C45.5725 7.78834 45.5725 7.8468 45.5574 7.89895C45.49 8.07433 45.2872 8.1916 45.0921 8.1916C44.8596 8.1916 44.7093 8.08771 44.7093 7.88591Z" fill="green"/>
<path fill-rule="evenodd" clip-rule="evenodd" d="M51.3546 8.4652C51.3546 9.02483 51.227 9.55838 50.7762 9.89646C50.3556 10.2088 49.7927 10.2933 49.2221 10.2933C48.7117 10.2933 48.1935 10.2088 47.8481 10.0524L48.1033 9.16742C48.3284 9.27802 48.7491 9.40161 49.1693 9.40161C49.6497 9.40161 50.0252 9.17373 50.0252 8.67929V8.53635H50.0102C49.785 8.7772 49.4546 8.89412 49.0868 8.89412C48.1857 8.89412 47.5327 8.26937 47.5327 7.33893C47.5327 6.33028 48.2833 5.6601 49.2071 5.6601C49.6574 5.6601 49.9655 5.80976 50.1605 6.07634H50.1756L50.2207 5.73159H51.3846C51.3696 5.9334 51.3546 6.2067 51.3546 6.71418V8.4652ZM50.0033 7.05335C50.0033 7.0012 49.9955 6.94912 49.9882 6.90369C49.9281 6.66951 49.7553 6.53915 49.5078 6.53915C49.1851 6.53915 48.9072 6.81244 48.9072 7.31993C48.9072 7.73622 49.1323 8.04225 49.5078 8.04225C49.7557 8.04225 49.9358 7.89925 49.9809 7.72353C50.0033 7.6584 50.0033 7.55452 50.0033 7.48262V7.05335Z" fill="green"/>
<path fill-rule="evenodd" clip-rule="evenodd" d="M53.292 7.74339C53.3375 7.9971 53.7652 8.13992 54.2454 8.13992C54.5908 8.13992 54.9212 8.10753 55.2517 8.01628L55.4244 8.79706C54.9814 8.94672 54.501 8.99886 54.043 8.99886C52.7441 8.99886 52.0081 8.38083 52.0081 7.36586C52.0081 6.62419 52.5637 5.66132 53.9227 5.66132C55.1168 5.66132 55.6272 6.42273 55.6272 7.30102C55.6272 7.48984 55.5971 7.66557 55.5748 7.74339H53.292ZM53.8553 6.4287C54.2832 6.4287 54.3807 6.76712 54.3807 6.94922H53.2769C53.2996 6.74743 53.4574 6.4287 53.8553 6.4287Z" fill="green"/>
<path d="M38.3803 5.73273H37.0212V8.93402H38.3803V5.73273Z" fill="green"/>
<path d="M35.8495 5.40054H35.8568C36.2775 5.40054 36.5477 5.15332 36.5477 4.84763C36.54 4.52222 36.2775 4.28802 35.8568 4.28802C35.4361 4.28802 35.1659 4.52222 35.1659 4.84763C35.1664 5.15332 35.4293 5.40054 35.8495 5.40054Z" fill="#34CE71"/>
<path d="M33.2212 5.40054H33.2139C32.7937 5.40054 32.5307 5.15332 32.5303 4.84763C32.5303 4.52222 32.8006 4.28802 33.2212 4.28802C33.6418 4.28802 33.9044 4.52222 33.9121 4.84763C33.9121 5.15332 33.6418 5.40054 33.2212 5.40054Z" fill="#34CE71"/>
<path d="M30.3054 12.7326L30.5156 12.2077H31.4102L31.6192 12.7326H31.986L31.1619 10.7491H30.7627L29.9386 12.7326H30.3054ZM30.6162 11.9559L30.9539 11.1094H30.9718L31.3095 11.9559H30.6162ZM32.6243 11.8494C32.6243 11.6121 32.7919 11.4765 33.0245 11.4765C33.2516 11.4765 33.3891 11.6053 33.3891 11.8213V12.7326H33.7234V11.7864C33.7234 11.4184 33.4897 11.2256 33.1386 11.2256C32.8803 11.2256 32.7114 11.3292 32.6321 11.4871H32.6108V11.245H32.2899V12.7326H32.6243V11.8494ZM34.3216 13.2866C34.5978 13.2866 34.7734 13.1616 34.8717 12.9311L35.5819 11.2479L35.2206 11.245L34.7857 12.3995H34.7678L34.3328 11.245H33.975L34.6034 12.752L34.562 12.8508C34.477 13.0435 34.3574 13.0609 34.174 13.0173L34.0935 13.2546C34.1338 13.2711 34.221 13.2866 34.3216 13.2866ZM36.5588 12.7626C37.043 12.7626 37.3595 12.4556 37.3595 11.9956C37.3595 11.5326 37.043 11.2256 36.5588 11.2256C36.0747 11.2256 35.7582 11.5326 35.7582 11.9956C35.7582 12.4556 36.0747 12.7626 36.5588 12.7626ZM36.56 12.5195C36.2435 12.5195 36.0959 12.2803 36.0959 11.9946C36.0959 11.7099 36.2435 11.4677 36.56 11.4677C36.8742 11.4677 37.0218 11.7099 37.0218 11.9946C37.0218 12.2803 36.8742 12.5195 36.56 12.5195ZM38.067 11.8494C38.067 11.6121 38.2347 11.4765 38.4673 11.4765C38.6943 11.4765 38.8319 11.6053 38.8319 11.8213V12.7326H39.1662V11.7864C39.1662 11.4184 38.9324 11.2256 38.5814 11.2256C38.323 11.2256 38.1542 11.3292 38.0748 11.4871H38.0536V11.245H37.7327V12.7326H38.067V11.8494ZM40.3548 12.7626C40.7294 12.7626 40.9944 12.6028 41.0705 12.3607L40.754 12.3113C40.6936 12.4517 40.5483 12.5234 40.3582 12.5234C40.0719 12.5234 39.8796 12.3626 39.8706 12.076H41.0917V11.9733C41.0917 11.4358 40.7205 11.2256 40.3313 11.2256C39.8527 11.2256 39.5374 11.5414 39.5374 11.9985C39.5374 12.4604 39.8483 12.7626 40.3548 12.7626ZM39.8718 11.859C39.8852 11.6479 40.0619 11.4648 40.3336 11.4648C40.5929 11.4648 40.763 11.6314 40.7641 11.859H39.8718ZM43.0195 12.7626C43.4254 12.7626 43.6881 12.5515 43.725 12.2619H43.3996C43.3571 12.4227 43.2129 12.5176 43.0216 12.5176C42.7388 12.5176 42.5565 12.3133 42.5565 11.9888C42.5565 11.6702 42.7421 11.4697 43.0216 11.4697C43.2341 11.4697 43.3638 11.5859 43.3996 11.7254H43.725C43.6893 11.4251 43.4063 11.2256 43.0161 11.2256C42.5319 11.2256 42.2188 11.5414 42.2188 11.9956C42.2188 12.444 42.5207 12.7626 43.0195 12.7626ZM44.5824 12.7655C44.8664 12.7655 45.0263 12.6406 45.0901 12.5292H45.1034V12.7326H45.43V11.7447C45.43 11.3118 45.0363 11.2256 44.7635 11.2256C44.4527 11.2256 44.1664 11.3341 44.0546 11.6053L44.3688 11.6673C44.418 11.5617 44.5432 11.46 44.768 11.46C44.9838 11.46 45.0945 11.5578 45.0945 11.7263V11.7331C45.0945 11.8387 44.9693 11.8367 44.6607 11.8677C44.3353 11.9006 44.0021 11.9743 44.0021 12.3123C44.0021 12.6048 44.2559 12.7655 44.5824 12.7655ZM44.6551 12.5331C44.4661 12.5331 44.3297 12.4595 44.3297 12.3161C44.3297 12.1612 44.4885 12.106 44.6819 12.0837C44.7904 12.0711 45.0476 12.0459 45.0956 12.0043V12.196C45.0956 12.3723 44.9335 12.5331 44.6551 12.5331ZM46.2097 11.8494C46.2097 11.6121 46.3773 11.4765 46.6099 11.4765C46.837 11.4765 46.9745 11.6053 46.9745 11.8213V12.7326H47.3088V11.7864C47.3088 11.4184 47.0751 11.2256 46.724 11.2256C46.4657 11.2256 46.2968 11.3292 46.2175 11.4871H46.1962V11.245H45.8753V12.7326H46.2097V11.8494ZM48.6173 12.7326H48.9439V12.5012H48.9719C49.0322 12.596 49.1552 12.7616 49.4683 12.7616C49.8843 12.7616 50.1862 12.4731 50.1862 11.9917C50.1862 11.5094 49.8798 11.2256 49.465 11.2256C49.1462 11.2256 49.0311 11.3941 48.9719 11.4861H48.9517V10.7491H48.6173V12.7326ZM48.945 11.9888C48.945 11.6779 49.1016 11.4716 49.3934 11.4716C49.6964 11.4716 49.8485 11.6934 49.8485 11.9888C49.8485 12.2871 49.6919 12.5147 49.3934 12.5147C49.106 12.5147 48.945 12.3016 48.945 11.9888ZM51.6496 12.1156C51.6507 12.3684 51.4338 12.4885 51.2459 12.4885C51.0391 12.4885 50.8959 12.3587 50.8959 12.1564V11.245H50.5616V12.1912C50.5616 12.5602 50.7953 12.752 51.1252 12.752C51.3835 12.752 51.559 12.6338 51.6385 12.475H51.6563V12.7326H51.9851V11.245H51.6496V12.1156ZM52.4343 12.7326H52.7686V11.245H52.4343V12.7326ZM52.6031 11.0155C52.7183 11.0155 52.8145 10.938 52.8145 10.8431C52.8145 10.7482 52.7183 10.6697 52.6031 10.6697C52.4869 10.6697 52.3918 10.7482 52.3918 10.8431C52.3918 10.938 52.4869 11.0155 52.6031 11.0155ZM53.5528 10.7491H53.2184V12.7326H53.5528V10.7491ZM54.6455 12.7616C54.9586 12.7616 55.0816 12.596 55.142 12.5012H55.1699V12.7326H55.4965V10.7491H55.1621V11.4861H55.142C55.0816 11.3941 54.9676 11.2256 54.6478 11.2256C54.2329 11.2256 53.9277 11.5094 53.9277 11.9917C53.9277 12.4731 54.2284 12.7616 54.6455 12.7616ZM54.7193 12.5147C54.4208 12.5147 54.2653 12.2871 54.2653 11.9888C54.2653 11.6934 54.4174 11.4716 54.7193 11.4716C55.0112 11.4716 55.1677 11.6779 55.1677 11.9888C55.1677 12.3016 55.0078 12.5147 54.7193 12.5147Z" fill="green"/>
</svg>
